<?xml version="1.0" encoding="UTF-8"?>
<svg xmlns="http://www.w3.org/2000/svg" xmlns:xlink="http://www.w3.org/1999/xlink" width="599pt" height="292pt" viewBox="0 0 599 292" version="1.1">
<defs>
<filter id="alpha" filterUnits="objectBoundingBox" x="0%" y="0%" width="100%" height="100%">
  <feColorMatrix type="matrix" in="SourceGraphic" values="0 0 0 0 1 0 0 0 0 1 0 0 0 0 1 0 0 0 1 0"/>
</filter>
<mask id="mask0">
  <g filter="url(#alpha)">
<rect x="0" y="0" width="599" height="292" style="fill:rgb(0%,0%,0%);fill-opacity:0.321569;stroke:none;"/>
  </g>
</mask>
<clipPath id="clip1">
  <rect x="0" y="0" width="599" height="292"/>
</clipPath>
<g id="surface5" clip-path="url(#clip1)">
<path style=" stroke:none;fill-rule:nonzero;fill:rgb(88.235294%,28.235294%,25.490196%);fill-opacity:1;" d="M 351.957031 268.414062 C 362.398438 268.414062 370.679688 256.515625 370.679688 241.734375 C 370.679688 226.953125 362.21875 215.238281 351.777344 215.238281 C 341.332031 215.238281 333.054688 227.132812 333.054688 241.914062 C 333.054688 256.695312 341.515625 268.414062 351.957031 268.414062 Z M 351.957031 226.050781 C 358.078125 226.050781 363.117188 233.082031 363.117188 241.734375 C 363.117188 250.386719 358.078125 257.597656 351.957031 257.597656 C 345.835938 257.597656 340.792969 250.566406 340.792969 241.914062 C 340.792969 233.082031 345.65625 226.050781 351.957031 226.050781 Z M 351.957031 226.050781 "/>
</g>
<mask id="mask1">
  <g filter="url(#alpha)">
<rect x="0" y="0" width="599" height="292" style="fill:rgb(0%,0%,0%);fill-opacity:0.321569;stroke:none;"/>
  </g>
</mask>
<clipPath id="clip2">
  <rect x="0" y="0" width="599" height="292"/>
</clipPath>
<g id="surface8" clip-path="url(#clip2)">
<path style=" stroke:none;fill-rule:nonzero;fill:rgb(88.235294%,28.235294%,25.490196%);fill-opacity:1;" d="M 347.09375 241.734375 C 347.09375 237.949219 349.253906 235.066406 351.777344 235.066406 C 354.296875 235.066406 356.457031 238.128906 356.636719 241.734375 C 356.636719 245.519531 354.476562 248.40625 351.957031 248.40625 C 349.253906 248.585938 347.09375 245.519531 347.09375 241.734375 Z M 347.09375 241.734375 "/>
</g>
<mask id="mask2">
  <g filter="url(#alpha)">
<rect x="0" y="0" width="599" height="292" style="fill:rgb(0%,0%,0%);fill-opacity:0.74902;stroke:none;"/>
  </g>
</mask>
<clipPath id="clip3">
  <rect x="0" y="0" width="599" height="292"/>
</clipPath>
<g id="surface11" clip-path="url(#clip3)">
<path style=" stroke:none;fill-rule:nonzero;fill:rgb(25.098039%,16.862745%,16.862745%);fill-opacity:1;" d="M 336.113281 36.414062 L 394.621094 36.234375 C 398.042969 36.234375 401.105469 38.035156 402.722656 41.101562 C 419.105469 72.285156 422.527344 100.769531 422.527344 117.171875 L 422.527344 134.476562 C 422.527344 137 420.546875 138.984375 418.027344 138.984375 L 403.804688 138.984375 C 401.464844 138.984375 399.125 137.902344 397.683594 136.101562 L 374.28125 108.160156 C 371.578125 105.09375 367.796875 103.113281 363.65625 103.292969 L 328.730469 103.292969 L 334.3125 38.035156 C 334.3125 37.132812 335.03125 36.414062 336.113281 36.414062 Z M 336.113281 36.414062 "/>
</g>
<linearGradient id="linear0" gradientUnits="userSpaceOnUse" x1="609.931" y1="-40.6307" x2="609.931" y2="297.04" gradientTransform="matrix(0.738594,0,0,0.739241,0,0)">
<stop offset="0" style="stop-color:rgb(95.686275%,66.27451%,51.764706%);stop-opacity:1;"/>
<stop offset="1" style="stop-color:rgb(93.333333%,30.196078%,27.843137%);stop-opacity:1;"/>
</linearGradient>
<linearGradient id="linear1" gradientUnits="userSpaceOnUse" x1="505.868" y1="-288.354" x2="505.868" y2="296.573" gradientTransform="matrix(0.738594,0,0,0.739241,0,0)">
<stop offset="0" style="stop-color:rgb(95.686275%,66.27451%,51.764706%);stop-opacity:1;"/>
<stop offset="0.560769" style="stop-color:rgb(93.333333%,30.196078%,27.843137%);stop-opacity:1;"/>
</linearGradient>
<mask id="mask3">
  <g filter="url(#alpha)">
<rect x="0" y="0" width="599" height="292" style="fill:rgb(0%,0%,0%);fill-opacity:0.4;stroke:none;"/>
  </g>
</mask>
<clipPath id="clip4">
  <rect x="0" y="0" width="599" height="292"/>
</clipPath>
<g id="surface14" clip-path="url(#clip4)">
<path style=" stroke:none;fill-rule:nonzero;fill:rgb(80.392157%,15.686275%,15.294118%);fill-opacity:1;" d="M 430.808594 171.25 L 430.808594 205.683594 L 493.636719 205.503906 C 492.917969 196.488281 491.296875 187.835938 488.597656 179.722656 C 487.515625 176.480469 484.816406 174.136719 481.398438 173.59375 C 467.535156 171.972656 449.890625 171.25 430.808594 171.25 Z M 557.910156 205.503906 L 589.054688 205.503906 C 589.59375 197.929688 590.132812 185.671875 590.671875 171.792969 C 583.113281 172.152344 576.089844 172.875 569.789062 173.777344 C 566.371094 174.316406 563.667969 176.660156 562.589844 179.90625 C 560.070312 187.835938 558.628906 196.488281 557.910156 205.503906 Z M 557.910156 205.503906 "/>
</g>
<mask id="mask4">
  <g filter="url(#alpha)">
<rect x="0" y="0" width="599" height="292" style="fill:rgb(0%,0%,0%);fill-opacity:0.2;stroke:none;"/>
  </g>
</mask>
<clipPath id="clip5">
  <rect x="0" y="0" width="599" height="292"/>
</clipPath>
<g id="surface17" clip-path="url(#clip5)">
<path style=" stroke:none;fill-rule:nonzero;fill:rgb(50.980392%,14.901961%,14.901961%);fill-opacity:1;" d="M 499.21875 169.449219 L 499.21875 203.878906 L 552.328125 203.699219 L 552.328125 169.269531 C 552.328125 165.121094 548.546875 161.878906 543.867188 161.878906 L 507.5 161.878906 C 503 162.058594 499.21875 165.484375 499.21875 169.449219 Z M 499.21875 169.449219 "/>
</g>
<mask id="mask5">
  <g filter="url(#alpha)">
<rect x="0" y="0" width="599" height="292" style="fill:rgb(0%,0%,0%);fill-opacity:0.8;stroke:none;"/>
  </g>
</mask>
<clipPath id="clip6">
  <rect x="0" y="0" width="599" height="292"/>
</clipPath>
<g id="surface20" clip-path="url(#clip6)">
<path style=" stroke:none;fill-rule:nonzero;fill:rgb(55.686275%,38.823529%,38.431373%);fill-opacity:1;" d="M 413.539062 33.351562 C 424.699219 58.949219 432.984375 82.566406 440.902344 115.554688 L 588.167969 115.195312 C 579.707031 84.1875 558.28125 51.199219 549.460938 39.121094 C 546.582031 35.15625 544.058594 31.730469 541.898438 28.667969 L 416.238281 29.027344 C 414.078125 29.207031 412.636719 31.371094 413.539062 33.351562 Z M 413.539062 33.351562 "/>
</g>
</defs>
<g id="surface1">
<path style=" stroke:none;fill-rule:nonzero;fill:rgb(26.666667%,16.862745%,16.862745%);fill-opacity:1;" d="M 171.027344 242.097656 C 171.027344 269.316406 186.6875 291.308594 205.953125 291.308594 L 240.878906 291.308594 C 260.140625 291.308594 275.625 269.136719 275.625 242.097656 C 275.625 214.875 259.960938 192.882812 240.699219 192.882812 C 240.335938 192.882812 240.160156 192.882812 239.796875 192.882812 L 205.953125 192.882812 C 186.511719 192.882812 171.027344 215.054688 171.027344 242.097656 Z M 171.027344 242.097656 "/>
<path style=" stroke:none;fill-rule:nonzero;fill:rgb(25.098039%,16.862745%,16.862745%);fill-opacity:1;" d="M 444.671875 241.554688 C 444.671875 268.773438 460.332031 290.765625 479.597656 290.765625 L 514.523438 290.765625 C 533.785156 290.765625 549.265625 268.59375 549.265625 241.554688 C 549.265625 214.335938 533.605469 192.34375 514.339844 192.34375 C 513.980469 192.34375 513.800781 192.34375 513.441406 192.34375 L 479.597656 192.34375 C 460.152344 192.34375 444.671875 214.335938 444.671875 241.554688 Z M 444.671875 241.554688 "/>
<path style=" stroke:none;fill-rule:nonzero;fill:rgb(0%,0%,0%);fill-opacity:1;" d="M 0 168.910156 L 10.621094 145.113281 L 42.488281 145.113281 L 42.847656 235.246094 L 0.179688 235.425781 Z M 0 168.910156 "/>
<path style=" stroke:none;fill-rule:nonzero;fill:rgb(26.666667%,16.862745%,16.862745%);fill-opacity:1;" d="M 168.6875 237.410156 L 309.289062 237.046875 L 293.085938 227.492188 L 186.6875 227.675781 Z M 168.6875 237.410156 "/>
<path style=" stroke:none;fill-rule:nonzero;fill:rgb(50.980392%,14.901961%,14.901961%);fill-opacity:1;" d="M 36.003906 157.191406 L 36.1875 247.503906 L 150.324219 247.324219 L 186.6875 227.675781 L 293.085938 227.492188 L 325.851562 246.964844 L 558.089844 246.421875 C 561.871094 246.421875 564.929688 243.355469 564.929688 239.574219 L 564.75 156.109375 Z M 36.003906 157.191406 "/>
<path style=" stroke:none;fill-rule:nonzero;fill:rgb(93.72549%,37.254902%,32.54902%);fill-opacity:1;" d="M 284.804688 177.742188 L 466.992188 177.378906 L 466.632812 12.078125 C 466.632812 5.40625 461.234375 0 454.390625 0 L 284.265625 0.359375 Z M 284.804688 177.742188 "/>
<path style=" stroke:none;fill-rule:nonzero;fill:rgb(95.294118%,58.039216%,46.27451%);fill-opacity:1;" d="M 0.71875 178.460938 L 284.625 177.921875 L 284.265625 0.539062 L 12.421875 1.082031 C 5.761719 1.082031 0.359375 6.488281 0.359375 13.339844 Z M 0.71875 178.460938 "/>
<path style=" stroke:none;fill-rule:nonzero;fill:rgb(25.098039%,16.862745%,16.862745%);fill-opacity:1;" d="M 421.628906 241.554688 C 421.628906 268.773438 406.144531 290.765625 386.882812 290.765625 L 352.136719 290.765625 L 352.136719 274.183594 C 339.355469 274.183594 328.914062 259.582031 328.914062 241.554688 C 328.914062 223.527344 339.175781 208.925781 351.957031 208.925781 L 351.957031 192.34375 L 386.703125 192.34375 C 405.964844 192.523438 421.445312 214.515625 421.628906 241.554688 Z M 421.628906 241.554688 "/>
<path style=" stroke:none;fill-rule:nonzero;fill:rgb(29.411765%,16.470588%,16.470588%);fill-opacity:1;" d="M 323.332031 241.914062 C 323.332031 264.269531 336.113281 282.292969 351.957031 282.113281 C 367.796875 282.113281 380.402344 264.085938 380.402344 241.734375 C 380.402344 219.382812 367.617188 201.355469 351.777344 201.535156 C 336.113281 201.535156 323.332031 219.5625 323.332031 241.914062 Z M 323.332031 241.914062 "/>
<use xlink:href="#surface5" mask="url(#mask0)"/>
<path style=" stroke:none;fill-rule:nonzero;fill:rgb(25.098039%,16.862745%,16.862745%);fill-opacity:1;" d="M 351.957031 290.949219 C 371.21875 290.949219 386.703125 268.773438 386.703125 241.734375 C 386.703125 214.695312 371.039062 192.523438 351.777344 192.523438 C 332.511719 192.523438 317.03125 214.695312 317.03125 241.734375 C 317.03125 268.773438 332.871094 291.128906 351.957031 290.949219 Z M 351.777344 201.535156 C 367.617188 201.535156 380.402344 219.5625 380.402344 241.734375 C 380.402344 264.085938 367.796875 282.113281 351.957031 282.113281 C 336.113281 282.113281 323.332031 264.085938 323.332031 241.914062 C 323.332031 219.5625 336.113281 201.535156 351.777344 201.535156 Z M 351.777344 201.535156 "/>
<use xlink:href="#surface8" mask="url(#mask1)"/>
<path style=" stroke:none;fill-rule:nonzero;fill:rgb(0%,0%,0%);fill-opacity:1;" d="M 147.804688 242.277344 C 147.804688 269.496094 132.320312 291.488281 113.058594 291.488281 L 78.3125 291.488281 L 78.3125 274.902344 C 65.53125 274.902344 55.089844 260.300781 55.089844 242.277344 C 55.089844 224.25 65.351562 209.648438 78.132812 209.648438 L 78.132812 193.0625 L 112.878906 193.0625 C 132.140625 193.0625 147.804688 215.054688 147.804688 242.277344 Z M 147.804688 242.277344 "/>
<path style=" stroke:none;fill-rule:nonzero;fill:rgb(80.392157%,15.686275%,15.294118%);fill-opacity:1;" d="M 587.613281 106.898438 C 587.613281 107.617188 588.152344 108.160156 588.695312 108.339844 C 590.132812 108.699219 595.535156 108.699219 597.15625 108.160156 C 597.875 107.980469 598.59375 107.4375 598.59375 106.535156 C 599.136719 92.117188 599.136719 78.054688 598.59375 64.714844 C 598.59375 63.8125 597.875 63.273438 597.15625 63.09375 C 595.355469 62.550781 589.054688 62.191406 587.074219 62.914062 C 586.351562 63.09375 585.8125 63.8125 585.8125 64.535156 C 585.453125 78.234375 585.992188 92.296875 587.613281 106.898438 Z M 587.613281 106.898438 "/>
<path style=" stroke:none;fill-rule:nonzero;fill:rgb(50.980392%,14.901961%,14.901961%);fill-opacity:1;" d="M 578.792969 119.695312 C 578.972656 119.695312 579.152344 119.695312 579.511719 119.515625 L 591.753906 113.386719 C 594.632812 111.945312 596.433594 109.058594 596.433594 105.816406 L 596.253906 60.570312 C 596.253906 58.765625 594.8125 57.324219 593.015625 57.324219 L 559.347656 57.324219 C 558.449219 57.324219 557.910156 58.046875 557.910156 58.765625 C 557.910156 59.667969 558.628906 60.207031 559.347656 60.207031 L 593.015625 60.207031 C 593.195312 60.207031 593.195312 60.390625 593.195312 60.390625 L 593.375 105.636719 C 593.375 107.796875 592.113281 109.601562 590.3125 110.503906 L 578.070312 116.632812 C 577.351562 116.992188 576.992188 117.894531 577.351562 118.613281 C 577.710938 119.515625 578.25 119.695312 578.792969 119.695312 Z M 578.792969 119.695312 "/>
<path style=" stroke:none;fill-rule:nonzero;fill:rgb(80.392157%,15.686275%,15.294118%);fill-opacity:1;" d="M 309.289062 177.378906 C 309.289062 177.378906 313.96875 177.378906 321.171875 177.378906 L 349.796875 177.378906 C 371.21875 177.378906 376.261719 188.015625 389.402344 214.152344 L 430.988281 213.976562 C 430.988281 213.976562 430.988281 210.910156 430.988281 205.683594 L 589.773438 205.320312 C 590.492188 192.164062 591.933594 165.484375 591.933594 140.246094 C 591.933594 139.34375 591.933594 138.625 591.933594 137.722656 C 591.933594 130.511719 590.671875 122.582031 588.511719 114.648438 C 580.050781 83.644531 558.628906 50.65625 549.808594 38.578125 C 546.925781 34.609375 544.40625 31.1875 542.246094 28.121094 C 536.125 20.007812 531.984375 15.863281 524.242188 15.863281 L 331.792969 16.402344 C 327.832031 16.402344 324.230469 19.109375 323.152344 22.894531 C 306.589844 83.824219 309.109375 130.152344 309.289062 177.378906 Z M 471.496094 37.855469 C 471.316406 36.953125 472.035156 36.234375 472.933594 36.234375 L 531.445312 36.054688 C 534.863281 36.054688 538.285156 37.855469 540.445312 40.921875 C 563.308594 72.105469 572.492188 100.585938 575.910156 116.992188 L 579.511719 134.296875 C 580.050781 136.820312 578.429688 138.804688 575.910156 138.804688 L 561.6875 138.804688 C 559.347656 138.804688 556.828125 137.722656 555.027344 135.917969 L 525.863281 107.980469 C 522.621094 104.914062 518.300781 103.113281 514.160156 103.113281 L 479.234375 103.113281 Z M 471.496094 37.855469 "/>
<path style=" stroke:none;fill-rule:nonzero;fill:rgb(50.980392%,14.901961%,14.901961%);fill-opacity:1;" d="M 441.25 115.1875 C 442.507812 120.957031 443.949219 126.90625 445.210938 133.214844 C 446.109375 137.542969 449.890625 140.605469 454.210938 140.785156 C 511.101562 142.769531 558.269531 142.949219 591.933594 140.425781 C 591.933594 139.523438 591.933594 138.804688 591.933594 137.902344 C 591.933594 130.691406 590.671875 122.761719 588.511719 114.828125 Z M 441.25 115.1875 "/>
<use xlink:href="#surface11" mask="url(#mask2)"/>
<path style=" stroke:none;fill-rule:nonzero;fill:url(#linear0);" d="M 309.289062 177.378906 C 309.289062 177.378906 313.96875 177.378906 321.171875 177.378906 L 349.796875 177.378906 C 371.21875 177.378906 376.261719 188.015625 389.402344 214.152344 L 430.988281 213.976562 C 430.988281 213.976562 430.988281 210.910156 430.988281 205.683594 L 589.773438 205.320312 C 590.492188 192.164062 591.933594 165.484375 591.933594 140.246094 C 558.269531 142.769531 510.921875 142.769531 454.210938 140.605469 C 449.890625 140.425781 446.109375 137.363281 445.210938 133.035156 C 443.949219 126.726562 442.511719 120.597656 441.25 115.007812 C 433.507812 82.019531 425.046875 58.40625 413.886719 32.808594 C 412.984375 30.824219 414.425781 28.480469 416.585938 28.480469 L 542.246094 28.121094 C 536.125 20.007812 531.984375 15.863281 524.242188 15.863281 L 331.792969 16.402344 C 327.832031 16.402344 324.230469 19.109375 323.152344 22.894531 C 306.589844 83.824219 309.109375 130.152344 309.289062 177.378906 Z M 328.550781 103.292969 L 334.132812 38.035156 C 334.132812 37.132812 335.03125 36.414062 335.933594 36.414062 L 394.441406 36.234375 C 397.863281 36.234375 400.921875 38.035156 402.542969 41.101562 C 418.925781 72.285156 422.347656 100.769531 422.347656 117.171875 L 422.347656 134.476562 C 422.347656 137 420.367188 138.984375 417.847656 138.984375 L 403.625 138.984375 C 401.285156 138.984375 398.941406 137.902344 397.503906 136.101562 L 374.097656 108.160156 C 371.398438 105.09375 367.617188 103.113281 363.476562 103.292969 Z M 328.550781 103.292969 "/>
<path style=" stroke:none;fill-rule:nonzero;fill:url(#linear1);" d="M 316.308594 172.695312 C 316.308594 175.398438 318.472656 177.378906 321.171875 177.378906 L 349.796875 177.378906 C 371.21875 177.378906 376.261719 188.015625 389.402344 214.152344 L 430.988281 213.976562 C 430.988281 213.976562 430.988281 210.910156 430.988281 205.683594 L 430.808594 132.675781 C 430.808594 96.441406 424.328125 73.546875 407.226562 37.316406 C 404.703125 31.90625 399.125 28.480469 393.183594 28.480469 L 331.253906 28.664062 C 329.8125 28.664062 328.730469 29.5625 328.371094 30.824219 C 316.128906 77.332031 316.128906 153.046875 316.308594 172.695312 Z M 328.550781 103.292969 L 334.132812 38.035156 C 334.132812 37.132812 335.03125 36.414062 335.933594 36.414062 L 394.441406 36.234375 C 397.863281 36.234375 400.921875 38.035156 402.542969 41.101562 C 418.925781 72.285156 422.347656 100.769531 422.347656 117.171875 L 422.347656 134.476562 C 422.347656 137 420.367188 138.984375 417.847656 138.984375 L 403.625 138.984375 C 401.285156 138.984375 398.945312 137.902344 397.503906 136.101562 L 374.097656 108.160156 C 371.398438 105.09375 367.617188 103.113281 363.476562 103.292969 Z M 328.550781 103.292969 "/>
<path style=" stroke:none;fill-rule:nonzero;fill:rgb(50.980392%,14.901961%,14.901961%);fill-opacity:1;" d="M 336.472656 38.578125 L 394.621094 38.398438 C 397.144531 38.398438 399.484375 39.839844 400.742188 42 C 417.667969 74.269531 420.367188 102.929688 420.367188 116.992188 L 420.367188 134.296875 C 420.367188 135.558594 419.285156 136.640625 418.027344 136.640625 L 403.804688 136.640625 C 402.003906 136.640625 400.382812 135.917969 399.304688 134.65625 L 375.898438 106.714844 C 372.839844 103.113281 368.339844 100.949219 363.476562 100.949219 L 331.074219 100.949219 Z M 336.113281 36.414062 C 335.214844 36.414062 334.3125 37.132812 334.3125 38.035156 L 328.730469 103.292969 L 363.65625 103.292969 C 367.796875 103.292969 371.578125 105.09375 374.28125 108.160156 L 397.683594 136.101562 C 399.125 137.902344 401.464844 138.984375 403.804688 138.984375 L 418.027344 138.984375 C 420.546875 138.984375 422.527344 137 422.527344 134.476562 L 422.527344 117.171875 C 422.527344 100.769531 419.105469 72.285156 402.722656 41.101562 C 401.105469 38.035156 398.042969 36.234375 394.621094 36.234375 Z M 336.113281 36.414062 "/>
<use xlink:href="#surface14" mask="url(#mask3)"/>
<path style=" stroke:none;fill-rule:nonzero;fill:rgb(93.333333%,30.196078%,27.843137%);fill-opacity:1;" d="M 430.988281 240.292969 L 576.632812 239.933594 C 586.535156 239.933594 594.632812 231.820312 594.632812 221.90625 L 594.632812 218.84375 C 594.632812 215.957031 592.292969 213.792969 589.59375 213.792969 L 431.167969 214.152344 Z M 430.988281 240.292969 "/>
<path style=" stroke:none;fill-rule:nonzero;fill:rgb(80.392157%,15.686275%,15.294118%);fill-opacity:1;" d="M 404.164062 240.292969 L 430.988281 240.292969 L 430.988281 214.15625 L 389.761719 214.15625 L 394.261719 232.363281 C 395.34375 237.046875 399.484375 240.292969 404.164062 240.292969 Z M 404.164062 240.292969 "/>
<path style=" stroke:none;fill-rule:nonzero;fill:rgb(80.392157%,15.686275%,15.294118%);fill-opacity:1;" d="M 340.074219 144.933594 C 346.195312 145.113281 358.078125 146.375 358.078125 150.703125 C 358.078125 155.027344 347.636719 156.46875 339.171875 156.46875 C 330.710938 156.46875 329.8125 151.78125 329.089844 149.800781 C 328.550781 147.816406 328.011719 144.753906 340.074219 144.933594 Z M 340.074219 144.933594 "/>
<path style=" stroke:none;fill-rule:nonzero;fill:rgb(60.784314%,8.627451%,8.627451%);fill-opacity:1;" d="M 340.613281 149.621094 C 337.734375 149.621094 334.671875 148.71875 333.234375 147.277344 C 334.3125 146.734375 335.933594 146.195312 338.453125 146.195312 C 343.132812 146.195312 350.695312 146.734375 354.65625 148.539062 C 354.117188 148.898438 352.675781 149.621094 350.335938 149.621094 C 347.457031 149.621094 343.675781 149.621094 340.613281 149.621094 Z M 340.613281 149.621094 "/>
<path style=" stroke:none;fill-rule:nonzero;fill:rgb(60.784314%,8.627451%,8.627451%);fill-opacity:1;" d="M 352.675781 153.046875 C 353.757812 153.046875 354.296875 153.226562 354.476562 153.40625 C 351.234375 154.847656 345.296875 155.386719 342.414062 155.386719 C 338.273438 155.386719 335.394531 155.386719 334.492188 154.488281 C 335.214844 153.945312 336.832031 153.046875 338.453125 153.046875 C 340.613281 153.226562 351.234375 153.046875 352.675781 153.046875 Z M 352.675781 153.046875 "/>
<path style=" stroke:none;fill-rule:nonzero;fill:rgb(50.980392%,14.901961%,14.901961%);fill-opacity:1;" d="M 430.988281 205.863281 C 430.988281 211.089844 430.988281 214.152344 430.988281 214.152344 L 589.234375 213.792969 C 589.234375 213.792969 589.414062 210.730469 589.773438 205.503906 Z M 430.988281 205.863281 "/>
<use xlink:href="#surface17" mask="url(#mask4)"/>
<path style=" stroke:none;fill-rule:nonzero;fill:rgb(100%,100%,100%);fill-opacity:1;" d="M 570.148438 202.617188 L 581.3125 202.617188 C 584.191406 202.617188 586.710938 200.273438 586.710938 197.210938 L 586.710938 191.621094 C 586.710938 188.738281 584.371094 186.214844 581.3125 186.214844 L 570.148438 186.214844 C 567.269531 186.214844 564.75 188.558594 564.75 191.621094 L 564.75 197.210938 C 564.75 200.273438 567.269531 202.617188 570.148438 202.617188 Z M 570.148438 202.617188 "/>
<path style=" stroke:none;fill-rule:nonzero;fill:rgb(100%,100%,100%);fill-opacity:1;" d="M 464.472656 202.976562 L 475.636719 202.976562 C 478.515625 202.976562 481.035156 200.636719 481.035156 197.570312 L 481.035156 191.980469 C 481.035156 189.097656 478.695312 186.574219 475.636719 186.574219 L 464.472656 186.574219 C 461.59375 186.574219 459.074219 188.917969 459.074219 191.980469 L 459.074219 197.570312 C 459.074219 200.453125 461.414062 202.976562 464.472656 202.976562 Z M 464.472656 202.976562 "/>
<path style=" stroke:none;fill-rule:nonzero;fill:rgb(80.392157%,15.686275%,15.294118%);fill-opacity:1;" d="M 392.460938 107.257812 C 392.460938 107.980469 393 108.519531 393.542969 108.699219 C 400.5625 109.421875 407.945312 109.421875 415.503906 108.519531 C 416.40625 108.339844 416.945312 107.796875 416.945312 106.898438 C 417.484375 92.476562 417.484375 78.414062 416.945312 65.074219 C 416.945312 64.175781 416.226562 63.632812 415.503906 63.453125 C 407.765625 62.550781 400.023438 62.550781 391.921875 63.453125 C 391.203125 63.632812 390.660156 64.355469 390.660156 65.074219 C 390.121094 78.59375 390.839844 92.65625 392.460938 107.257812 Z M 392.460938 107.257812 "/>
<path style=" stroke:none;fill-rule:nonzero;fill:rgb(50.980392%,14.901961%,14.901961%);fill-opacity:1;" d="M 420.367188 120.054688 C 420.90625 120.054688 421.445312 119.695312 421.625 119.15625 C 421.984375 118.433594 421.625 117.53125 420.90625 117.171875 L 408.664062 111.222656 C 406.863281 110.320312 405.601562 108.339844 405.601562 106.355469 L 405.421875 61.109375 C 405.421875 60.929688 405.601562 60.929688 405.601562 60.929688 L 413.164062 60.929688 C 414.066406 60.929688 414.605469 60.207031 414.605469 59.488281 C 414.605469 58.585938 413.882812 58.046875 413.164062 58.046875 L 405.601562 58.046875 C 403.804688 58.046875 402.363281 59.488281 402.363281 61.289062 L 402.542969 106.535156 C 402.542969 109.78125 404.34375 112.664062 407.222656 114.109375 L 419.464844 120.054688 C 420.007812 120.054688 420.1875 120.054688 420.367188 120.054688 Z M 420.367188 120.054688 "/>
<path style=" stroke:none;fill-rule:nonzero;fill:rgb(100%,100%,100%);fill-opacity:1;" d="M 502.929688 242.429688 L 553.878906 242.316406 L 553.84375 226.996094 L 502.898438 227.105469 Z M 502.929688 242.429688 "/>
<use xlink:href="#surface20" mask="url(#mask5)"/>
<path style=" stroke:none;fill-rule:nonzero;fill:rgb(0%,0%,0%);fill-opacity:1;" d="M 52.570312 242.457031 C 52.570312 264.808594 65.351562 282.835938 81.191406 282.65625 C 97.035156 282.65625 109.636719 264.628906 109.636719 242.277344 C 109.636719 219.921875 96.855469 201.898438 81.011719 202.078125 C 65.171875 202.078125 52.570312 220.105469 52.570312 242.457031 Z M 52.570312 242.457031 "/>
<path style=" stroke:none;fill-rule:nonzero;fill:rgb(38.431373%,36.078431%,36.078431%);fill-opacity:1;" d="M 81.191406 268.953125 C 91.632812 268.953125 99.917969 257.058594 99.917969 242.277344 C 99.917969 227.675781 91.453125 215.777344 81.011719 215.777344 C 70.570312 215.777344 62.289062 227.675781 62.289062 242.457031 C 62.289062 257.238281 70.75 268.953125 81.191406 268.953125 Z M 81.011719 226.59375 C 87.132812 226.59375 92.175781 233.621094 92.175781 242.277344 C 92.175781 250.929688 87.132812 258.140625 81.011719 258.140625 C 74.890625 258.140625 69.851562 251.109375 69.851562 242.457031 C 69.851562 233.625 74.890625 226.59375 81.011719 226.59375 Z M 81.011719 226.59375 "/>
<path style=" stroke:none;fill-rule:nonzero;fill:rgb(25.882353%,25.882353%,25.882353%);fill-opacity:1;" d="M 81.191406 291.667969 C 100.457031 291.667969 115.9375 269.496094 115.9375 242.457031 C 115.9375 215.238281 100.277344 193.242188 81.011719 193.242188 C 61.75 193.242188 46.265625 215.417969 46.265625 242.457031 C 46.265625 269.675781 61.929688 291.667969 81.191406 291.667969 Z M 81.011719 202.078125 C 96.855469 202.078125 109.636719 220.105469 109.636719 242.277344 C 109.636719 264.449219 97.035156 282.65625 81.191406 282.65625 C 65.351562 282.65625 52.570312 264.628906 52.570312 242.457031 C 52.570312 220.285156 65.171875 202.078125 81.011719 202.078125 Z M 81.011719 202.078125 "/>
<path style=" stroke:none;fill-rule:nonzero;fill:rgb(54.509804%,50.980392%,50.980392%);fill-opacity:1;" d="M 76.332031 242.457031 C 76.332031 238.671875 78.492188 235.785156 81.011719 235.785156 C 83.714844 235.785156 85.691406 238.851562 85.875 242.457031 C 85.875 246.242188 83.714844 249.125 81.191406 249.125 C 78.492188 249.125 76.332031 246.0625 76.332031 242.457031 Z M 76.332031 242.457031 "/>
</g>
</svg>
